REM DIRINDEX 1\5,1\2\6,1\2\7,1\3\8,1\3\9,1\4\10,1\4\11,1\4\12
REM DIRNAME folder01,folder02,folder03,folder04,folder05,folder06,folder07,folder08,folder09,folder10,folder11,folder12
TITLE ""
FILE "EJE_DB3000_5th_2A_33.mp3" MP3
  TRACK 01 AUDIO
    TITLE "0:"
    INDEX 01 00:00:00
  TRACK 02 AUDIO
    TITLE "10:cjc026_07797"
    INDEX 01 00:00:05
  TRACK 03 AUDIO
    TITLE "0:"
    INDEX 01 00:00:70
  TRACK 04 AUDIO
    TITLE "11:cjc026_07798"
    INDEX 01 00:01:21
  TRACK 05 AUDIO
    TITLE "0:"
    INDEX 01 00:02:20
  TRACK 06 AUDIO
    TITLE "12:cjc026_07799"
    INDEX 01 00:02:43
  TRACK 07 AUDIO
    TITLE "0:"
    INDEX 01 00:03:35
  TRACK 08 AUDIO
    TITLE "10:cjc026_07800"
    INDEX 01 00:03:61
  TRACK 09 AUDIO
    TITLE "0:"
    INDEX 01 00:04:48
  TRACK 10 AUDIO
    TITLE "11:cjc026_07801"
    INDEX 01 00:04:74
  TRACK 11 AUDIO
    TITLE "0:"
    INDEX 01 00:06:08
  TRACK 12 AUDIO
    TITLE "12:cjc026_07802"
    INDEX 01 00:06:33
  TRACK 13 AUDIO
    TITLE "0:"
    INDEX 01 00:07:21
  TRACK 14 AUDIO
    TITLE "10:cjc026_07803"
    INDEX 01 00:07:47
  TRACK 15 AUDIO
    TITLE "0:"
    INDEX 01 00:08:34
  TRACK 16 AUDIO
    TITLE "11:cjc026_07804"
    INDEX 01 00:08:60
  TRACK 17 AUDIO
    TITLE "0:"
    INDEX 01 00:09:61
  TRACK 18 AUDIO
    TITLE "12:cjc026_07805"
    INDEX 01 00:10:14
  TRACK 19 AUDIO
    TITLE "0:"
    INDEX 01 00:11:01
  TRACK 20 AUDIO
    TITLE "10:cjc026_07806"
    INDEX 01 00:11:27
  TRACK 21 AUDIO
    TITLE "0:"
    INDEX 01 00:12:14
  TRACK 22 AUDIO
    TITLE "11:cjc026_07807"
    INDEX 01 00:12:42
  TRACK 23 AUDIO
    TITLE "0:"
    INDEX 01 00:13:18
  TRACK 24 AUDIO
    TITLE "12:cjc026_07808"
    INDEX 01 00:13:43
  TRACK 25 AUDIO
    TITLE "0:"
    INDEX 01 00:14:31
  TRACK 26 AUDIO
    TITLE "10:cjc026_07809"
    INDEX 01 00:14:56
  TRACK 27 AUDIO
    TITLE "0:"
    INDEX 01 00:15:44
  TRACK 28 AUDIO
    TITLE "11:cjc026_07810"
    INDEX 01 00:15:72
  TRACK 29 AUDIO
    TITLE "0:"
    INDEX 01 00:16:53
  TRACK 30 AUDIO
    TITLE "12:cjc026_07811"
    INDEX 01 00:17:04
  TRACK 31 AUDIO
    TITLE "0:"
    INDEX 01 00:17:65
  TRACK 32 AUDIO
    TITLE "10:cjc026_07812"
    INDEX 01 00:18:19
  TRACK 33 AUDIO
    TITLE "0:"
    INDEX 01 00:19:09
  TRACK 34 AUDIO
    TITLE "11:cjc026_07813"
    INDEX 01 00:19:34
  TRACK 35 AUDIO
    TITLE "0:"
    INDEX 01 00:20:22
  TRACK 36 AUDIO
    TITLE "12:cjc026_07814"
    INDEX 01 00:20:47
  TRACK 37 AUDIO
    TITLE "0:"
    INDEX 01 00:21:37
  TRACK 38 AUDIO
    TITLE "10:cjc026_07815"
    INDEX 01 00:21:62
  TRACK 39 AUDIO
    TITLE "0:"
    INDEX 01 00:22:64
  TRACK 40 AUDIO
    TITLE "11:cjc026_07816"
    INDEX 01 00:23:14
  TRACK 41 AUDIO
    TITLE "0:"
    INDEX 01 00:24:20
  TRACK 42 AUDIO
    TITLE "12:cjc026_07817"
    INDEX 01 00:24:45
  TRACK 43 AUDIO
    TITLE "0:"
    INDEX 01 00:25:45
  TRACK 44 AUDIO
    TITLE "10:cjc026_07818"
    INDEX 01 00:25:72
  TRACK 45 AUDIO
    TITLE "0:"
    INDEX 01 00:27:04
  TRACK 46 AUDIO
    TITLE "11:cjc026_07819"
    INDEX 01 00:27:32
  TRACK 47 AUDIO
    TITLE "0:"
    INDEX 01 00:28:55
  TRACK 48 AUDIO
    TITLE "12:cjc026_07820"
    INDEX 01 00:29:05
  TRACK 49 AUDIO
    TITLE "0:"
    INDEX 01 00:30:14
  TRACK 50 AUDIO
    TITLE "10:cjc026_07821"
    INDEX 01 00:30:40
  TRACK 51 AUDIO
    TITLE "0:"
    INDEX 01 00:31:57
  TRACK 52 AUDIO
    TITLE "11:cjc026_07822"
    INDEX 01 00:32:07
  TRACK 53 AUDIO
    TITLE "0:"
    INDEX 01 00:33:26
  TRACK 54 AUDIO
    TITLE "12:cjc026_07823"
    INDEX 01 00:33:52
  TRACK 55 AUDIO
    TITLE "0:"
    INDEX 01 00:34:69
  TRACK 56 AUDIO
    TITLE "10:cjc026_07824"
    INDEX 01 00:35:21
  TRACK 57 AUDIO
    TITLE "0:"
    INDEX 01 00:36:33
  TRACK 58 AUDIO
    TITLE "11:cjc026_07825"
    INDEX 01 00:36:58
  TRACK 59 AUDIO
    TITLE "0:"
    INDEX 01 00:37:65
  TRACK 60 AUDIO
    TITLE "12:cjc026_07826"
    INDEX 01 00:38:16
  TRACK 61 AUDIO
    TITLE "0:"
    INDEX 01 00:39:29
  TRACK 62 AUDIO
    TITLE "10:cjc026_07827"
    INDEX 01 00:39:54
  TRACK 63 AUDIO
    TITLE "0:"
    INDEX 01 00:40:48
  TRACK 64 AUDIO
    TITLE "11:cjc026_07828"
    INDEX 01 00:40:73
  TRACK 65 AUDIO
    TITLE "0:"
    INDEX 01 00:42:04
  TRACK 66 AUDIO
    TITLE "12:cjc026_07829"
    INDEX 01 00:42:31
  TRACK 67 AUDIO
    TITLE "0:"
    INDEX 01 00:43:25
  TRACK 68 AUDIO
    TITLE "10:cjc026_07830"
    INDEX 01 00:43:50
  TRACK 69 AUDIO
    TITLE "0:"
    INDEX 01 00:44:52
  TRACK 70 AUDIO
    TITLE "11:cjc026_07831"
    INDEX 01 00:45:04
  TRACK 71 AUDIO
    TITLE "0:"
    INDEX 01 00:46:11
  TRACK 72 AUDIO
    TITLE "12:cjc026_07832"
    INDEX 01 00:46:37
  TRACK 73 AUDIO
    TITLE "0:"
    INDEX 01 00:47:36
